<svg width="88" height="103" viewBox="0 0 88 103" fill="none" xmlns="http://www.w3.org/2000/svg">
<circle cx="2.60081" cy="99.8947" r="2.60081" fill="#74D66F"/>
<circle cx="23.1433" cy="99.8947" r="2.60081" fill="#74D66F"/>
<circle cx="43.6843" cy="99.8947" r="2.60081" fill="#74D66F"/>
<circle cx="64.2297" cy="99.8947" r="2.60081" fill="#74D66F"/>
<circle cx="84.7712" cy="99.8947" r="2.60081" fill="#74D66F"/>
<circle cx="2.60081" cy="80.4361" r="2.60081" fill="#74D66F"/>
<circle cx="23.1433" cy="80.436" r="2.60081" fill="#74D66F"/>
<circle cx="43.6843" cy="80.436" r="2.60081" fill="#74D66F"/>
<circle cx="64.2297" cy="80.436" r="2.60081" fill="#74D66F"/>
<circle cx="84.7712" cy="80.436" r="2.60081" fill="#74D66F"/>
<circle cx="2.60081" cy="60.9922" r="2.60081" fill="#74D66F"/>
<circle cx="23.1433" cy="60.9922" r="2.60081" fill="#74D66F"/>
<circle cx="43.6843" cy="60.9922" r="2.60081" fill="#74D66F"/>
<circle cx="64.2297" cy="60.9922" r="2.60081" fill="#74D66F"/>
<circle cx="84.7712" cy="60.9922" r="2.60081" fill="#74D66F"/>
<circle cx="2.60081" cy="41.5185" r="2.60081" fill="#74D66F"/>
<circle cx="23.1433" cy="41.5185" r="2.60081" fill="#74D66F"/>
<circle cx="43.6843" cy="41.5185" r="2.60081" fill="#74D66F"/>
<circle cx="64.2297" cy="41.5185" r="2.60081" fill="#74D66F"/>
<circle cx="84.7712" cy="41.5185" r="2.60081" fill="#74D66F"/>
<circle cx="2.60081" cy="22.0596" r="2.60081" fill="#74D66F"/>
<circle cx="23.1433" cy="22.0596" r="2.60081" fill="#74D66F"/>
<circle cx="43.6843" cy="22.0596" r="2.60081" fill="#74D66F"/>
<circle cx="64.2297" cy="22.0596" r="2.60081" fill="#74D66F"/>
<circle cx="84.7712" cy="22.0596" r="2.60081" fill="#74D66F"/>
<circle cx="2.60081" cy="2.60081" r="2.60081" fill="#74D66F"/>
<circle cx="23.1433" cy="2.60081" r="2.60081" fill="#74D66F"/>
<circle cx="43.6843" cy="2.60081" r="2.60081" fill="#74D66F"/>
<circle cx="64.2297" cy="2.60081" r="2.60081" fill="#74D66F"/>
<circle cx="84.7712" cy="2.60081" r="2.60081" fill="#74D66F"/>
</svg>
