<svg width="149" height="45" viewBox="0 0 149 45" fill="none" xmlns="http://www.w3.org/2000/svg">
<circle cx="2.60081" cy="41.8948" r="2.60081" fill="#AF92FC"/>
<circle cx="23.1423" cy="41.8946" r="2.60081" fill="#AF92FC"/>
<circle cx="43.6877" cy="41.8946" r="2.60081" fill="#AF92FC"/>
<circle cx="64.2287" cy="41.8946" r="2.60081" fill="#AF92FC"/>
<circle cx="84.7712" cy="41.8946" r="2.60081" fill="#AF92FC"/>
<circle cx="105.312" cy="41.8946" r="2.60081" fill="#AF92FC"/>
<circle cx="125.858" cy="41.8946" r="2.60081" fill="#AF92FC"/>
<circle cx="146.399" cy="41.8946" r="2.60081" fill="#AF92FC"/>
<circle cx="2.60081" cy="22.4374" r="2.60081" fill="#AF92FC"/>
<circle cx="23.1423" cy="22.4361" r="2.60081" fill="#AF92FC"/>
<circle cx="43.6877" cy="22.4361" r="2.60081" fill="#AF92FC"/>
<circle cx="64.2287" cy="22.4361" r="2.60081" fill="#AF92FC"/>
<circle cx="84.7712" cy="22.436" r="2.60081" fill="#AF92FC"/>
<circle cx="105.312" cy="22.436" r="2.60081" fill="#AF92FC"/>
<circle cx="125.858" cy="22.436" r="2.60081" fill="#AF92FC"/>
<circle cx="146.399" cy="22.436" r="2.60081" fill="#AF92FC"/>
<circle cx="2.60081" cy="2.99332" r="2.60081" fill="#AF92FC"/>
<circle cx="23.1423" cy="2.99229" r="2.60081" fill="#AF92FC"/>
<circle cx="43.6877" cy="2.99229" r="2.60081" fill="#AF92FC"/>
<circle cx="64.2287" cy="2.99229" r="2.60081" fill="#AF92FC"/>
<circle cx="84.7712" cy="2.99229" r="2.60081" fill="#AF92FC"/>
<circle cx="105.312" cy="2.99229" r="2.60081" fill="#AF92FC"/>
<circle cx="125.858" cy="2.99229" r="2.60081" fill="#AF92FC"/>
<circle cx="146.399" cy="2.99229" r="2.60081" fill="#AF92FC"/>
</svg>
