<svg width="41" height="51" viewBox="0 0 41 51" fill="none" xmlns="http://www.w3.org/2000/svg">
<path d="M30.2961 31.1739C29.4185 32.9708 27.5545 34.1335 25.1598 34.5039C22.7672 34.8739 19.8937 34.4398 17.1206 33.0853C14.3474 31.7308 12.2384 29.7314 11.0594 27.6169C9.87935 25.5005 9.65045 23.3155 10.5281 21.5186C11.4058 19.7217 13.2698 18.559 15.6645 18.1886C18.057 17.8185 20.9305 18.2526 23.7037 19.6071C26.4769 20.9616 28.5858 22.9611 29.7648 25.0756C30.9449 27.192 31.1738 29.377 30.2961 31.1739Z" fill="#B059FF" stroke="#8D3BD7"/>
<path d="M23.108 27.6629C21.8054 30.3298 18.1467 31.3606 14.8536 29.7522C11.5605 28.1437 10.1243 24.6244 11.4269 21.9575C12.7295 19.2905 16.3881 18.2597 19.6812 19.8682C22.9744 21.4766 24.4106 24.9959 23.108 27.6629Z" fill="#E0BEFF" stroke="#8D3BD7"/>
<mask id="path-3-inside-1" fill="white">
<path fill-rule="evenodd" clip-rule="evenodd" d="M29.7424 19.9027L19.8584 15.0751L15.5794 23.8359L15.3756 24.2531L15.4256 24.2775C15.077 25.8601 16.6053 27.954 19.095 29.17C21.5847 30.386 24.1758 30.3042 25.2096 29.0563L25.2596 29.0807L25.4634 28.6636L29.7424 19.9027Z"/>
</mask>
<path fill-rule="evenodd" clip-rule="evenodd" d="M29.7424 19.9027L19.8584 15.0751L15.5794 23.8359L15.3756 24.2531L15.4256 24.2775C15.077 25.8601 16.6053 27.954 19.095 29.17C21.5847 30.386 24.1758 30.3042 25.2096 29.0563L25.2596 29.0807L25.4634 28.6636L29.7424 19.9027Z" fill="#B059FF"/>
<path d="M19.8584 15.0751L20.2973 14.1765L19.3987 13.7376L18.9599 14.6362L19.8584 15.0751ZM29.7424 19.9027L30.641 20.3416L31.0798 19.443L30.1813 19.0042L29.7424 19.9027ZM15.5794 23.8359L14.6808 23.397L15.5794 23.8359ZM15.3756 24.2531L14.477 23.8142L14.0382 24.7128L14.9367 25.1516L15.3756 24.2531ZM15.4256 24.2775L16.4022 24.4927L16.5715 23.7243L15.8645 23.379L15.4256 24.2775ZM25.2096 29.0563L25.6484 28.1577L24.9414 27.8124L24.4395 28.4183L25.2096 29.0563ZM25.2596 29.0807L24.8207 29.9793L25.7193 30.4182L26.1582 29.5196L25.2596 29.0807ZM19.4195 15.9736L29.3035 20.8013L30.1813 19.0042L20.2973 14.1765L19.4195 15.9736ZM16.4779 24.2748L20.7569 15.5139L18.9599 14.6362L14.6808 23.397L16.4779 24.2748ZM16.2741 24.692L16.4779 24.2748L14.6808 23.397L14.477 23.8142L16.2741 24.692ZM15.8645 23.379L15.8145 23.3545L14.9367 25.1516L14.9868 25.1761L15.8645 23.379ZM19.5339 28.2715C18.4123 27.7236 17.54 26.9925 16.9983 26.2643C16.4416 25.5161 16.3142 24.892 16.4022 24.4927L14.4491 24.0624C14.1884 25.2456 14.6508 26.4597 15.3936 27.4581C16.1513 28.4765 17.2881 29.4004 18.6561 30.0686L19.5339 28.2715ZM24.4395 28.4183C24.1787 28.7332 23.6081 29.0164 22.6758 29.0374C21.7684 29.0578 20.6555 28.8193 19.5339 28.2715L18.6561 30.0686C20.0242 30.7368 21.4517 31.0654 22.7207 31.0369C23.9648 31.0089 25.2067 30.6273 25.9796 29.6943L24.4395 28.4183ZM25.6985 28.1822L25.6484 28.1577L24.7707 29.9548L24.8207 29.9793L25.6985 28.1822ZM24.5648 28.2247L24.3611 28.6419L26.1582 29.5196L26.3619 29.1024L24.5648 28.2247ZM28.8439 19.4638L24.5648 28.2247L26.3619 29.1024L30.641 20.3416L28.8439 19.4638Z" fill="#8D3BD7" mask="url(#path-3-inside-1)"/>
<rect x="20.5487" y="16.9531" width="1" height="6" transform="rotate(26.0322 20.5487 16.9531)" fill="#E0BEFF" stroke="#8D3BD7"/>
<path d="M35.3013 16.4968C33.6501 19.8774 28.7133 21.0694 24.1422 18.8368C19.5711 16.6041 17.4762 11.9776 19.1274 8.59703C20.7786 5.21643 25.7154 4.02445 30.2865 6.25709C34.8576 8.48973 36.9525 13.1162 35.3013 16.4968Z" fill="#B059FF" stroke="#8D3BD7"/>
<path d="M27.6537 11.5202C26.9532 12.9545 24.9873 13.5566 23.1922 12.6798C21.3971 11.803 20.6633 9.88238 21.3639 8.44809C22.0644 7.01381 24.0303 6.41173 25.8254 7.28852C27.6206 8.16531 28.3543 10.0859 27.6537 11.5202Z" fill="#E0BEFF" stroke="#8D3BD7"/>
<rect x="15.7835" y="33.545" width="1" height="12" transform="rotate(26.0322 15.7835 33.545)" fill="#DDDADA" stroke="#8D3BD7"/>
</svg>
