<svg width="180" height="38" fill="none" xmlns="http://www.w3.org/2000/svg">
  <path d="M63.4 18.674a80.79 80.79 0 01-1.182 4.049c-.422 1.314-.84 2.553-1.255 3.718H58.6a50.363 50.363 0 01-1.004-2.479c-.35-.928-.7-1.92-1.05-2.974a119.195 119.195 0 01-1.052-3.33c-.35-1.164-.693-2.352-1.027-3.564h3.058c.143.661.31 1.373.501 2.136.191.764.39 1.543.597 2.338.208.794.422 1.57.645 2.325.223.756.446 1.448.67 2.078a84.57 84.57 0 001.36-4.557c.208-.77.403-1.523.586-2.254.183-.732.347-1.42.49-2.066h2.222a130.497 130.497 0 001.039 4.32c.199.771.414 1.543.645 2.314.23.771.466 1.519.704 2.243.207-.63.422-1.322.645-2.078.223-.755.442-1.53.657-2.325.215-.795.418-1.574.61-2.338.19-.763.358-1.475.501-2.136h2.986c-.334 1.212-.677 2.4-1.027 3.565-.35 1.165-.7 2.274-1.051 3.329-.35 1.054-.7 2.046-1.051 2.974a37.86 37.86 0 01-1.027 2.48h-2.341c-.415-1.166-.84-2.405-1.279-3.72a66.91 66.91 0 01-1.206-4.048zm11.156 1.653c0-1.086.163-2.039.49-2.857.326-.819.76-1.5 1.302-2.042A5.394 5.394 0 0178.21 14.2a5.829 5.829 0 012.15-.413c1.72 0 3.062.527 4.025 1.582.964 1.054 1.446 2.628 1.446 4.721a13.2 13.2 0 01-.048 1.063h-8.242c.08.991.434 1.759 1.063 2.302.63.543 1.541.814 2.735.814.701 0 1.342-.063 1.923-.189.582-.126 1.04-.26 1.374-.401l.382 2.337a4.526 4.526 0 01-.657.248 9.381 9.381 0 01-.955.236c-.358.071-.745.13-1.159.177-.414.047-.836.071-1.266.071-1.099 0-2.054-.161-2.867-.484-.812-.323-1.48-.771-2.006-1.346a5.5 5.5 0 01-1.17-2.03c-.255-.779-.383-1.633-.383-2.561zm8.385-1.275c0-.394-.056-.768-.167-1.122a2.695 2.695 0 00-.49-.92 2.313 2.313 0 00-.788-.614c-.31-.15-.681-.224-1.111-.224-.446 0-.836.082-1.17.247a2.662 2.662 0 00-.849.65 2.96 2.96 0 00-.537.92 4.92 4.92 0 00-.263 1.063h5.375zm8.886 1.18c0 1.26.303 2.247.908 2.963.606.716 1.442 1.074 2.509 1.074.461 0 .856-.02 1.182-.059.326-.04.593-.082.8-.13v-7.082c-.254-.173-.593-.335-1.015-.484a4.013 4.013 0 00-1.35-.224c-1.05 0-1.82.354-2.305 1.062-.486.708-.728 1.668-.728 2.88zm8.29 5.831c-.574.174-1.294.33-2.162.473a17.05 17.05 0 01-2.735.212c-.988 0-1.872-.15-2.652-.449a5.53 5.53 0 01-1.995-1.286 5.654 5.654 0 01-1.266-2.03c-.294-.795-.442-1.689-.442-2.68 0-.976.124-1.861.37-2.656.247-.795.61-1.475 1.088-2.042a4.84 4.84 0 011.743-1.31c.685-.307 1.474-.46 2.365-.46.606 0 1.139.07 1.6.212.463.141.86.299 1.195.472V8.593l2.891-.472v17.942zm3.655-5.736c0-1.086.163-2.039.489-2.857.327-.819.761-1.5 1.302-2.042a5.398 5.398 0 011.864-1.228 5.824 5.824 0 012.15-.413c1.72 0 3.061.527 4.025 1.582.963 1.054 1.445 2.628 1.445 4.721 0 .158-.004.335-.012.532a8.83 8.83 0 01-.036.53h-8.241c.079.992.434 1.76 1.063 2.303.629.543 1.541.814 2.735.814.701 0 1.342-.063 1.923-.189s1.039-.26 1.374-.401l.382 2.337a4.636 4.636 0 01-.657.248 9.367 9.367 0 01-.956.236c-.358.071-.744.13-1.158.177-.414.047-.836.071-1.266.071-1.099 0-2.055-.161-2.867-.484-.812-.323-1.481-.771-2.006-1.346a5.496 5.496 0 01-1.171-2.03c-.255-.779-.382-1.633-.382-2.561zm8.385-1.275c0-.394-.056-.768-.168-1.122a2.685 2.685 0 00-.489-.92 2.311 2.311 0 00-.789-.614c-.31-.15-.68-.224-1.11-.224-.446 0-.837.082-1.171.247a2.668 2.668 0 00-.848.65c-.231.267-.41.574-.537.92a4.92 4.92 0 00-.263 1.063h5.375zm9.818 7.39a79.122 79.122 0 01-2.449-5.584 70.418 70.418 0 01-2.281-6.764h3.082a67.992 67.992 0 002.161 6.93c.279.747.538 1.42.777 2.017.239-.598.494-1.27.764-2.018a86.858 86.858 0 001.553-4.698c.239-.795.446-1.539.621-2.231h2.986a70.418 70.418 0 01-2.281 6.764c-.836 2.1-1.652 3.962-2.449 5.583h-2.484zm9.054-6.115c0-1.086.163-2.039.489-2.857.327-.819.761-1.5 1.302-2.042a5.398 5.398 0 011.864-1.228 5.824 5.824 0 012.15-.413c1.72 0 3.061.527 4.025 1.582.963 1.054 1.445 2.628 1.445 4.721 0 .158-.004.335-.012.532a8.83 8.83 0 01-.036.53h-8.241c.079.992.434 1.76 1.063 2.303.629.543 1.541.814 2.735.814.701 0 1.342-.063 1.923-.189s1.039-.26 1.374-.401l.382 2.337a4.636 4.636 0 01-.657.248 9.367 9.367 0 01-.956.236c-.358.071-.744.13-1.158.177-.414.047-.836.071-1.266.071-1.099 0-2.055-.161-2.867-.484-.812-.323-1.481-.771-2.007-1.346a5.508 5.508 0 01-1.17-2.03c-.255-.779-.382-1.633-.382-2.561zm8.384-1.275c0-.394-.055-.768-.167-1.122a2.685 2.685 0 00-.489-.92 2.311 2.311 0 00-.789-.614c-.31-.15-.681-.224-1.111-.224-.446 0-.836.082-1.17.247a2.657 2.657 0 00-.848.65 2.97 2.97 0 00-.538.92c-.127.347-.215.7-.262 1.063h5.374zm10.965 7.625c-.86-.015-1.572-.11-2.138-.283-.565-.173-1.015-.421-1.349-.744a2.62 2.62 0 01-.705-1.204 6.069 6.069 0 01-.203-1.64V8.592l2.89-.472v14.141c0 .347.028.638.084.874.056.236.155.437.299.602.143.165.338.291.585.378.247.086.561.153.943.2l-.406 2.361zm14.716-6.421c0 .976-.144 1.865-.43 2.668-.287.802-.693 1.487-1.219 2.053a5.468 5.468 0 01-1.899 1.322c-.74.315-1.557.473-2.448.473-.892 0-1.704-.158-2.437-.473a5.496 5.496 0 01-1.887-1.322c-.526-.566-.936-1.25-1.23-2.053-.295-.803-.442-1.692-.442-2.668 0-.976.147-1.861.442-2.656a5.942 5.942 0 011.242-2.042 5.482 5.482 0 011.899-1.31c.732-.307 1.537-.461 2.413-.461.876 0 1.684.153 2.424.46a5.336 5.336 0 011.899 1.31 6.06 6.06 0 011.231 2.043c.294.795.442 1.68.442 2.656zm-2.962 0c0-1.228-.267-2.2-.801-2.916-.533-.716-1.278-1.074-2.233-1.074-.956 0-1.7.358-2.234 1.074-.533.716-.8 1.688-.8 2.916 0 1.243.267 2.227.8 2.95.534.725 1.278 1.087 2.234 1.087.955 0 1.7-.362 2.233-1.086.534-.724.801-1.708.801-2.951zm14.906.07c0-1.274-.291-2.266-.872-2.974-.581-.708-1.517-1.063-2.807-1.063-.271 0-.553.012-.848.036a4.706 4.706 0 00-.872.153v7.06a4.53 4.53 0 001.015.483c.422.15.872.225 1.35.225 1.051 0 1.82-.355 2.305-1.063.486-.708.729-1.66.729-2.856zM180 20.28c0 .945-.123 1.81-.37 2.597-.247.787-.601 1.464-1.063 2.03a4.714 4.714 0 01-1.732 1.323c-.693.315-1.477.472-2.353.472a5.868 5.868 0 01-1.625-.213 6.143 6.143 0 01-1.218-.472v4.793h-2.89V14.495a23.218 23.218 0 012.173-.448 16.75 16.75 0 012.724-.213c.987 0 1.871.15 2.651.449a5.524 5.524 0 011.995 1.286 5.64 5.64 0 011.266 2.03c.295.796.442 1.689.442 2.68zM11.23 37.774L0 18.884 11.23 0h22.45l11.23 18.884-11.23 18.89H11.23z" fill="#fff"/>
  <path d="M32.112 4.738l-5.97 2.503a8.372 8.372 0 00-3.366 2.558l-6.832 8.807-2.444-.157-2.034 2.451 3.643 2.61-1.393 4.178 3.14-2.93 4.698-4.375-3.582 5.163 6.512 4.673 1.581-2.778-.973-2.283 5.843-9.516a8.602 8.602 0 001.25-4.088l.303-6.557a.288.288 0 00-.123-.226.278.278 0 00-.253-.033z" fill="#292C31"/>
  <path d="M20.067 27.946l-2.127-1.504-5.518 7.554 7.645-6.05z" fill="#292C31"/>
</svg>
